<svg width="111" height="48" viewBox="0 0 111 48" fill="none" xmlns="http://www.w3.org/2000/svg">
<g clip-path="url(#clip0_1_43)">
<path d="M13.1152 12.7031C13.1152 13.3086 13.0371 13.8424 12.8809 14.3047C12.7311 14.7669 12.5163 15.1673 12.2363 15.5059C11.9629 15.8444 11.6374 16.1276 11.2598 16.3555C10.8822 16.5833 10.4688 16.7656 10.0195 16.9023C9.57682 17.0391 9.10482 17.1367 8.60352 17.1953C8.10872 17.2539 7.60417 17.2832 7.08984 17.2832C6.41276 17.2832 5.78776 17.2311 5.21484 17.127C4.64193 17.0293 4.10156 16.873 3.59375 16.6582C3.09245 16.4368 2.60742 16.1536 2.13867 15.8086C1.67643 15.4635 1.21419 15.0436 0.751953 14.5488L2.74414 12.5273C2.92643 12.9766 3.17708 13.3932 3.49609 13.7773C3.8151 14.1549 4.16341 14.4805 4.54102 14.7539C4.92513 15.0273 5.32227 15.2422 5.73242 15.3984C6.14258 15.5547 6.52995 15.6328 6.89453 15.6328C7.32422 15.6328 7.72786 15.6035 8.10547 15.5449C8.48307 15.4798 8.81185 15.3757 9.0918 15.2324C9.37174 15.0892 9.58984 14.9004 9.74609 14.666C9.90885 14.4251 9.99023 14.1257 9.99023 13.7676C9.99023 13.4941 9.92839 13.2598 9.80469 13.0645C9.68099 12.8691 9.51823 12.7031 9.31641 12.5664C9.12109 12.4232 8.89648 12.3027 8.64258 12.2051C8.38867 12.1074 8.12826 12.026 7.86133 11.9609C7.60091 11.8893 7.34375 11.8275 7.08984 11.7754C6.83594 11.7168 6.61133 11.6582 6.41602 11.5996C6.0319 11.4889 5.63151 11.3717 5.21484 11.248C4.79818 11.1178 4.38802 10.9714 3.98438 10.8086C3.58073 10.6458 3.19661 10.4603 2.83203 10.252C2.47396 10.0371 2.1582 9.78646 1.88477 9.5C1.61133 9.20703 1.39323 8.87174 1.23047 8.49414C1.06771 8.11003 0.986328 7.67057 0.986328 7.17578C0.986328 6.58333 1.05794 6.05924 1.20117 5.60352C1.35091 5.14128 1.55924 4.74089 1.82617 4.40234C2.0931 4.0638 2.40885 3.7806 2.77344 3.55273C3.13802 3.31836 3.53841 3.13281 3.97461 2.99609C4.41081 2.85286 4.87305 2.75195 5.36133 2.69336C5.85612 2.62826 6.36068 2.5957 6.875 2.5957C7.57812 2.5957 8.21615 2.66081 8.78906 2.79102C9.36849 2.92122 9.90234 3.10677 10.3906 3.34766C10.8789 3.58854 11.3249 3.87826 11.7285 4.2168C12.1387 4.54883 12.5228 4.91992 12.8809 5.33008L10.8887 7.35156C10.7324 6.88281 10.5143 6.45964 10.2344 6.08203C9.96094 5.70443 9.65495 5.38216 9.31641 5.11523C8.97786 4.8418 8.62305 4.63346 8.25195 4.49023C7.88086 4.34049 7.52279 4.26562 7.17773 4.26562C6.72852 4.26562 6.3151 4.29818 5.9375 4.36328C5.5599 4.42188 5.23438 4.52279 4.96094 4.66602C4.69401 4.80273 4.48568 4.99154 4.33594 5.23242C4.1862 5.4668 4.11133 5.75977 4.11133 6.11133C4.11133 6.39128 4.16667 6.62891 4.27734 6.82422C4.38802 7.01953 4.53451 7.18555 4.7168 7.32227C4.9056 7.45898 5.11719 7.57292 5.35156 7.66406C5.58594 7.7487 5.82682 7.82357 6.07422 7.88867C6.32812 7.95378 6.57552 8.01237 6.81641 8.06445C7.0638 8.11003 7.28841 8.16211 7.49023 8.2207C7.88086 8.33138 8.29102 8.44857 8.7207 8.57227C9.15039 8.69596 9.57357 8.84245 9.99023 9.01172C10.4069 9.17448 10.804 9.36328 11.1816 9.57812C11.5592 9.79297 11.8913 10.0501 12.1777 10.3496C12.4642 10.6426 12.6921 10.9844 12.8613 11.375C13.0306 11.7591 13.1152 12.2018 13.1152 12.7031ZM28.9258 10.2715V10.457C28.9128 11.0039 28.8542 11.5703 28.75 12.1562C28.6523 12.7422 28.5124 13.3281 28.3301 13.9141C28.1478 14.5 27.9297 15.0794 27.6758 15.6523C27.4219 16.2253 27.1354 16.7721 26.8164 17.293C26.5039 17.8203 26.1654 18.3118 25.8008 18.7676C25.4362 19.2298 25.0521 19.6367 24.6484 19.9883L23.1934 19.1484C23.4212 18.7643 23.6263 18.3444 23.8086 17.8887C23.9974 17.4395 24.1667 16.9674 24.3164 16.4727C24.4661 15.9779 24.5931 15.4701 24.6973 14.9492C24.8079 14.4284 24.8991 13.9108 24.9707 13.3965C25.0423 12.8822 25.0944 12.3776 25.127 11.8828C25.166 11.3815 25.1855 10.9062 25.1855 10.457C25.1855 10.1055 25.1823 9.70833 25.1758 9.26562C25.1758 8.81641 25.1497 8.36068 25.0977 7.89844C25.0521 7.4362 24.974 6.98698 24.8633 6.55078C24.7526 6.10807 24.5866 5.71419 24.3652 5.36914C24.1504 5.02409 23.8704 4.7474 23.5254 4.53906C23.1868 4.33073 22.7637 4.22656 22.2559 4.22656C21.8066 4.22656 21.4193 4.30469 21.0938 4.46094C20.7747 4.61068 20.5013 4.81576 20.2734 5.07617C20.0521 5.33008 19.873 5.6263 19.7363 5.96484C19.6061 6.30339 19.502 6.66146 19.4238 7.03906C19.3522 7.41016 19.3034 7.78776 19.2773 8.17188C19.2578 8.54948 19.248 8.90755 19.248 9.24609V11.9707H23.457V13.582H19.248V17H15.3711V9.85156C15.3711 8.82943 15.5339 7.87891 15.8594 7C16.1849 6.12109 16.6439 5.35938 17.2363 4.71484C17.8353 4.0638 18.5514 3.55599 19.3848 3.19141C20.2246 2.82031 21.1589 2.63477 22.1875 2.63477C22.8841 2.63477 23.5352 2.73568 24.1406 2.9375C24.7526 3.13281 25.3092 3.40625 25.8105 3.75781C26.3118 4.10286 26.7578 4.51628 27.1484 4.99805C27.5456 5.47331 27.8743 5.99414 28.1348 6.56055C28.4017 7.12695 28.6035 7.72591 28.7402 8.35742C28.877 8.98893 28.9388 9.62695 28.9258 10.2715ZM33.252 17H31.4551V2.9375H33.9746L42.5195 12.5957V2.9375H44.3066V17H41.7871L33.252 7.35156V17ZM53.9941 17H50.1172V4.73438H46.2891V2.9375H57.8223V4.73438H53.9941V17ZM63.6914 17H59.8145V2.9375H63.6914V17Z" fill="url(#paint0_linear_1_43)"/>
<path d="M11.136 39.024C11.136 40.144 10.776 40.976 10.056 41.52C9.352 42.064 8.36 42.336 7.08 42.336C5.032 42.336 3.52 41.656 2.544 40.296C1.584 38.936 1.104 37.16 1.104 34.968C1.104 34.616 1.12 34.104 1.152 33.432H-0.192C-0.32 33.432 -0.384 33.384 -0.384 33.288C-0.384 33.016 -0.248 32.688 0.024 32.304C0.296 31.92 0.592 31.728 0.912 31.728H1.368C1.576 30.576 1.912 29.56 2.376 28.68C2.856 27.8 3.352 27.12 3.864 26.64C4.392 26.16 4.968 25.776 5.592 25.488C6.584 25.008 7.624 24.768 8.712 24.768C9.8 24.768 10.48 24.944 10.752 25.296C10.88 25.472 10.944 25.8 10.944 26.28C10.944 26.744 10.888 26.976 10.776 26.976C10.76 26.976 10.688 26.944 10.56 26.88C10.144 26.688 9.624 26.592 9 26.592C7.64 26.592 6.576 27.072 5.808 28.032C5.056 28.992 4.552 30.224 4.296 31.728C5.512 31.712 7.16 31.704 9.24 31.704C9.4 31.704 9.48 31.76 9.48 31.872C9.48 32.128 9.352 32.456 9.096 32.856C8.84 33.24 8.552 33.432 8.232 33.432H4.104C4.088 33.624 4.08 34.048 4.08 34.704C4.08 35.344 4.192 36.024 4.416 36.744C4.656 37.448 5.088 38.048 5.712 38.544C6.352 39.04 7.176 39.288 8.184 39.288C9.192 39.288 10.04 39.064 10.728 38.616C10.808 38.552 10.88 38.52 10.944 38.52C11.072 38.52 11.136 38.688 11.136 39.024ZM19.8129 28.704L19.9089 27.96C19.9089 27.224 19.6209 26.752 19.0449 26.544C18.5969 26.4 18.2529 26.328 18.0129 26.328H17.9889C17.5089 26.328 17.0929 26.408 16.7409 26.568C16.3889 26.712 16.1329 26.896 15.9729 27.12C15.6369 27.584 15.4449 28.072 15.3969 28.584C15.3969 29.192 15.6689 29.72 16.2129 30.168C16.7569 30.6 17.4129 30.984 18.1809 31.32C18.9649 31.64 19.7409 31.992 20.5089 32.376C21.2929 32.76 21.9569 33.312 22.5009 34.032C23.0449 34.752 23.3169 35.616 23.3169 36.624C23.3169 38.592 22.6929 40.064 21.4449 41.04C20.2129 42.016 18.8049 42.504 17.2209 42.504C15.6529 42.504 14.3489 42.152 13.3089 41.448C12.2849 40.728 11.7729 39.768 11.7729 38.568V38.544C11.7729 37.952 11.8609 37.44 12.0369 37.008C12.2289 36.56 12.4529 36.232 12.7089 36.024C13.2369 35.592 13.7169 35.36 14.1489 35.328L14.4369 35.304C14.8849 35.304 15.2929 35.416 15.6609 35.64C16.0289 35.848 16.2129 36.144 16.2129 36.528C16.2129 36.72 16.1089 36.88 15.9009 37.008C15.6929 37.136 15.5089 37.328 15.3489 37.584C15.2049 37.84 15.1249 38.056 15.1089 38.232L15.0609 38.496C15.0609 39.472 15.5089 40.12 16.4049 40.44C16.7249 40.552 16.9809 40.608 17.1729 40.608C18.0529 40.608 18.7569 40.344 19.2849 39.816C19.8289 39.288 20.1009 38.616 20.1009 37.8C20.1009 36.824 19.6849 36.032 18.8529 35.424C18.2289 34.976 17.5489 34.6 16.8129 34.296C16.0929 33.992 15.6049 33.776 15.3489 33.648C15.0929 33.52 14.8209 33.368 14.5329 33.192C14.2449 33.016 13.9249 32.768 13.5729 32.448C12.8049 31.776 12.4209 30.872 12.4209 29.736C12.4209 28.584 12.7329 27.616 13.3569 26.832C14.4769 25.408 16.1569 24.696 18.3969 24.696C19.5809 24.696 20.5809 24.928 21.3969 25.392C22.2129 25.84 22.6209 26.464 22.6209 27.264C22.6209 27.84 22.4529 28.32 22.1169 28.704C21.7969 29.088 21.3809 29.28 20.8689 29.28C20.6289 29.28 20.3889 29.232 20.1489 29.136C19.9249 29.04 19.8129 28.896 19.8129 28.704ZM29.8633 31.944C29.9273 31.944 30.0473 32.008 30.2233 32.136C30.3993 32.264 30.5833 32.328 30.7753 32.328H30.7993C31.3433 32.328 31.7753 32.112 32.0953 31.68C32.4153 31.248 32.5913 30.816 32.6233 30.384L32.6953 29.736C32.6953 29.128 32.5993 28.608 32.4073 28.176C32.2313 27.728 32.0233 27.4 31.7833 27.192C31.5433 26.968 31.2633 26.8 30.9433 26.688C30.5433 26.528 30.1193 26.448 29.6713 26.448C29.2393 26.448 28.8873 26.496 28.6153 26.592C28.3433 26.672 28.1913 26.752 28.1593 26.832L28.1353 26.976C27.9913 29.136 27.9193 31.072 27.9193 32.784C27.9193 34.48 27.9433 35.944 27.9913 37.176C28.0553 38.408 28.1113 39.36 28.1593 40.032C28.2233 40.688 28.2553 41.048 28.2553 41.112C28.2553 41.512 27.9033 41.832 27.1993 42.072C26.4953 42.312 25.7993 42.432 25.1113 42.432C24.7913 42.432 24.6313 42.352 24.6313 42.192C24.6313 42.144 24.6553 42.032 24.7033 41.856C25.0073 41.152 25.1593 37.88 25.1593 32.04C25.1593 28.6 24.9273 26.632 24.4633 26.136C24.3673 26.04 24.3193 25.944 24.3193 25.848C24.3193 25.736 24.4313 25.616 24.6553 25.488C24.8953 25.36 25.5513 25.216 26.6233 25.056C27.6953 24.88 28.8313 24.792 30.0313 24.792C31.9193 24.792 33.3353 25.304 34.2793 26.328C35.2393 27.352 35.7193 28.576 35.7193 30C35.7193 31.408 35.3273 32.632 34.5433 33.672C33.7753 34.712 32.7673 35.232 31.5193 35.232C31.1193 35.232 30.7193 35.16 30.3193 35.016C29.5193 34.728 29.1193 34.128 29.1193 33.216C29.1193 33.024 29.1833 32.768 29.3113 32.448C29.4393 32.112 29.6233 31.944 29.8633 31.944ZM40.1381 31.368C40.1381 36.328 40.2501 39.576 40.4741 41.112C40.4741 41.496 40.1061 41.808 39.3701 42.048C38.6341 42.304 38.0261 42.432 37.5461 42.432C37.0661 42.432 36.8261 42.36 36.8261 42.216C36.8261 42.12 36.8501 42 36.8981 41.856C37.2021 41.184 37.3541 38.48 37.3541 33.744C37.3541 29.264 37.1621 26.776 36.7781 26.28L36.6821 26.136C36.5861 26.056 36.5381 25.96 36.5381 25.848C36.5381 25.72 36.6261 25.616 36.8021 25.536C37.0421 25.392 37.4661 25.248 38.0741 25.104C38.6981 24.96 39.2581 24.888 39.7541 24.888C40.2501 24.888 40.4981 25 40.4981 25.224V25.296C40.3061 26.96 40.1861 28.984 40.1381 31.368ZM51.2769 34.488L51.2529 31.632C51.2529 28.8 51.1569 26.92 50.9649 25.992C50.9329 25.88 50.9169 25.792 50.9169 25.728C50.9169 25.456 51.1889 25.224 51.7329 25.032C52.2769 24.84 52.7089 24.744 53.0289 24.744C53.3489 24.744 53.5089 24.84 53.5089 25.032C53.5089 25.048 53.4929 25.136 53.4609 25.296C53.0929 27.264 52.9089 30.392 52.9089 34.68C52.9089 37.608 53.0769 39.712 53.4129 40.992C53.4769 41.2 53.5089 41.312 53.5089 41.328C53.5089 41.664 53.1409 41.936 52.4049 42.144C51.6689 42.368 51.1489 42.48 50.8449 42.48C50.3649 42.48 50.0369 42.368 49.8609 42.144C49.5089 41.696 48.9329 40.44 48.1329 38.376C47.3489 36.296 46.6609 34.36 46.0689 32.568L45.1569 29.88C45.1249 29.8 45.0849 29.76 45.0369 29.76C44.9729 29.76 44.9009 29.816 44.8209 29.928C44.7409 31.416 44.7009 32.904 44.7009 34.392C44.7009 35.88 44.7089 37.024 44.7249 37.824C44.7569 38.624 44.7889 39.232 44.8209 39.648C44.8529 40.064 44.8849 40.4 44.9169 40.656C44.9489 40.896 44.9729 41.072 44.9889 41.184C45.0209 41.296 45.0369 41.376 45.0369 41.424C45.0369 41.728 44.7729 41.96 44.2449 42.12C43.7169 42.296 43.2369 42.384 42.8049 42.384C42.3889 42.384 42.1809 42.288 42.1809 42.096C42.1809 42 42.2049 41.88 42.2529 41.736C42.3009 41.592 42.3569 41.408 42.4209 41.184C42.5809 40.624 42.6929 39.608 42.7569 38.136C42.8209 36.648 42.8529 34.96 42.8529 33.072C42.8529 31.168 42.8289 29.784 42.7809 28.92C42.7009 27.512 42.5569 26.568 42.3489 26.088C42.3009 26.04 42.2769 25.976 42.2769 25.896C42.2769 25.64 42.7009 25.392 43.5489 25.152C44.3969 24.912 45.0529 24.792 45.5169 24.792C45.9969 24.792 46.2769 24.8 46.3569 24.816C46.5809 24.8 46.7169 24.928 46.7649 25.2C47.2289 26.88 47.8769 28.856 48.7089 31.128C49.5569 33.4 50.3089 35.136 50.9649 36.336C51.0449 36.416 51.1089 36.456 51.1569 36.456C51.2369 36.456 51.2769 35.8 51.2769 34.488ZM59.9944 26.448C59.7064 26.448 59.4584 26.496 59.2504 26.592C59.0424 26.688 58.9384 26.808 58.9384 26.952C58.7464 27.624 58.6504 29.632 58.6504 32.976C58.6504 36.304 58.6424 38.168 58.6264 38.568C58.9304 39.048 59.4024 39.288 60.0424 39.288C61.1784 39.288 62.0344 38.664 62.6104 37.416C63.1864 36.152 63.4744 34.576 63.4744 32.688C63.4744 30.784 63.1944 29.272 62.6344 28.152C62.0744 27.016 61.1944 26.448 59.9944 26.448ZM55.4104 42.264C55.1704 42.232 55.0504 42.16 55.0504 42.048L55.1224 41.76C55.5224 40.896 55.7224 37.784 55.7224 32.424C55.7224 29.864 55.6504 28.264 55.5064 27.624C55.3784 26.984 55.2744 26.576 55.1944 26.4L55.0744 26.16C55.0104 26.096 54.9784 26.008 54.9784 25.896C54.9784 25.768 55.0744 25.664 55.2664 25.584C56.5144 25.088 58.1544 24.84 60.1864 24.84C64.4584 24.84 66.5944 27.56 66.5944 33C66.5944 35.128 66.2184 37.072 65.4664 38.832C65.1624 39.504 64.8104 40.088 64.4104 40.584C64.0104 41.064 63.4824 41.472 62.8264 41.808C62.1864 42.128 61.4744 42.288 60.6904 42.288C60.5304 42.272 60.3224 42.248 60.0664 42.216C59.8264 42.184 59.4584 42.064 58.9624 41.856C58.4824 41.648 58.1544 41.376 57.9784 41.04C57.3864 41.856 56.5304 42.264 55.4104 42.264ZM73.8518 26.592C73.2758 26.592 72.7958 26.8 72.4118 27.216C71.7398 27.952 71.4038 28.888 71.4038 30.024C71.4038 31.144 71.6918 31.816 72.2678 32.04C72.4118 32.088 72.4838 32.192 72.4838 32.352C72.4838 32.832 72.3238 33.24 72.0038 33.576C71.6838 33.896 71.2918 34.088 70.8278 34.152C70.6838 34.152 70.6118 34.208 70.6118 34.32C70.5958 34.496 70.5878 34.752 70.5878 35.088C70.5878 35.408 70.6038 35.768 70.6358 36.168C70.6678 36.552 70.7398 37.016 70.8518 37.56C70.9798 38.088 71.1398 38.552 71.3318 38.952C71.5398 39.336 71.8278 39.672 72.1958 39.96C72.5798 40.232 73.0678 40.368 73.6598 40.368C74.2678 40.368 74.8118 40.128 75.2918 39.648C75.7718 39.168 76.1078 38.544 76.2998 37.776C76.6518 36.432 76.8278 35.144 76.8278 33.912C76.8278 32.664 76.7478 31.568 76.5878 30.624C76.4278 29.68 76.2358 28.96 76.0118 28.464C75.8038 27.968 75.5478 27.568 75.2438 27.264C74.9398 26.96 74.6838 26.776 74.4758 26.712C74.2678 26.632 74.0598 26.592 73.8518 26.592ZM69.4838 28.968L69.5798 28.824C69.7398 28.088 69.9958 27.456 70.3478 26.928C70.7158 26.384 71.0758 25.984 71.4278 25.728C71.7958 25.456 72.2038 25.248 72.6518 25.104C73.2438 24.912 73.7638 24.816 74.2118 24.816C75.2838 24.816 76.2038 25.064 76.9718 25.56C77.7558 26.056 78.3478 26.728 78.7478 27.576C79.4838 29.192 79.8518 31.024 79.8518 33.072C79.8518 36.512 79.0518 39.016 77.4518 40.584C76.6678 41.352 75.8038 41.872 74.8598 42.144C74.2678 42.32 73.6998 42.408 73.1558 42.408C71.1558 42.408 69.6838 41.728 68.7398 40.368C67.7958 38.992 67.3238 37.256 67.3238 35.16C67.3238 33.944 67.4278 32.832 67.6357 31.824C67.8438 30.8 68.0598 30.08 68.2838 29.664L68.5958 29.04C68.6598 28.896 68.7638 28.824 68.9078 28.824C69.0518 28.824 69.1558 28.84 69.2198 28.872C69.2998 28.888 69.3558 28.912 69.3878 28.944C69.4358 28.96 69.4678 28.968 69.4838 28.968ZM87.7123 41.976L86.3443 41.952C86.1523 41.952 85.9603 41.952 85.7683 41.952L81.4003 42.168C81.1603 42.168 81.0403 42.088 81.0403 41.928C81.0403 41.88 81.0643 41.768 81.1123 41.592C81.2723 41.224 81.3843 40.056 81.4483 38.088C81.5283 36.12 81.5683 34.328 81.5683 32.712C81.5683 31.08 81.5363 29.76 81.4723 28.752C81.3763 27.232 81.2163 26.32 80.9923 26.016C80.8163 25.792 80.7283 25.648 80.7283 25.584C80.7283 25.328 81.1603 25.104 82.0243 24.912C82.8883 24.72 83.5043 24.624 83.8723 24.624C84.2563 24.624 84.4963 24.648 84.5923 24.696C84.6883 24.728 84.7363 24.808 84.7363 24.936C84.7363 25.064 84.7043 25.472 84.6403 26.16C84.4803 28.192 84.4003 30.56 84.4003 33.264C84.4003 35.952 84.4643 38.104 84.5923 39.72C84.5923 39.896 84.7443 40.048 85.0483 40.176C85.3523 40.304 85.7283 40.368 86.1763 40.368C87.7443 40.368 88.5283 39.16 88.5283 36.744C88.5283 36.072 88.4883 35.656 88.4083 35.496C88.3443 35.336 88.3123 35.232 88.3123 35.184C88.3123 35.024 88.4243 34.944 88.6483 34.944C88.8243 34.944 89.0563 35.032 89.3443 35.208C89.6483 35.384 89.8963 35.608 90.0883 35.88C90.2803 36.136 90.4563 36.552 90.6163 37.128C90.7763 37.688 90.8563 38.352 90.8563 39.12C90.8563 41.024 90.6243 41.976 90.1603 41.976C89.3443 41.976 88.5283 41.976 87.7123 41.976ZM97.9913 28.248C96.7273 29.832 95.8153 31.416 95.2553 33H95.2793C97.5033 33 98.7753 33.008 99.0953 33.024C99.4313 33.024 99.6153 33.008 99.6473 32.976C99.6793 32.944 99.7033 32.904 99.7193 32.856C99.4473 30.888 99.2313 29.552 99.0713 28.848C98.9113 28.128 98.7513 27.768 98.5913 27.768C98.4313 27.768 98.2313 27.928 97.9913 28.248ZM95.8553 39.552L96.3833 39.456C96.5433 39.456 96.6233 39.544 96.6233 39.72C96.6233 40.28 96.5113 40.752 96.2873 41.136C96.0633 41.52 95.7833 41.792 95.4473 41.952C94.9033 42.224 94.4393 42.36 94.0553 42.36C93.3193 42.36 92.7673 42.088 92.3993 41.544C92.0313 40.984 91.8473 40.152 91.8473 39.048C91.8473 37.928 92.1513 36.48 92.7593 34.704H91.3673C91.1913 34.704 91.1033 34.616 91.1033 34.44C91.1033 34.264 91.2393 33.984 91.5113 33.6C91.7833 33.2 92.0713 33 92.3753 33H93.4553C94.5913 30.472 95.9273 28.288 97.4633 26.448C97.8633 25.968 98.3513 25.52 98.9273 25.104C99.5193 24.688 99.9753 24.48 100.295 24.48C100.615 24.48 100.855 24.624 101.015 24.912C101.431 25.584 101.919 28.04 102.479 32.28C102.671 34.104 102.999 35.992 103.463 37.944C103.943 39.88 104.383 41.008 104.783 41.328C104.879 41.392 104.927 41.472 104.927 41.568C104.927 41.808 104.583 42.032 103.895 42.24C103.223 42.448 102.703 42.552 102.335 42.552C101.983 42.552 101.711 42.504 101.519 42.408C101.327 42.328 101.207 42.24 101.159 42.144C100.871 41.52 100.583 40.032 100.295 37.68L100.151 36.552C100.087 35.8 100.023 35.232 99.9593 34.848L99.7913 34.728L94.7753 34.704C94.5833 35.52 94.4873 36.232 94.4873 36.84C94.4873 37.448 94.5033 37.896 94.5353 38.184C94.5833 38.456 94.7193 38.752 94.9433 39.072C95.1673 39.392 95.4713 39.552 95.8553 39.552Z" fill="white"/>
</g>
<defs>
<linearGradient id="paint0_linear_1_43" x1="5.87288" y1="9.5" x2="66.3933" y2="27.6006" gradientUnits="userSpaceOnUse">
<stop stop-color="#86E7D6" stop-opacity="0.9"/>
<stop offset="1" stop-color="#538AD6"/>
</linearGradient>
<clipPath id="clip0_1_43">
<rect width="111" height="48" fill="white"/>
</clipPath>
</defs>
</svg>
